<svg width="2289" height="368" viewBox="0 0 2289 368" fill="none" xmlns="http://www.w3.org/2000/svg">
<path d="M69.4443 30.4219L101.944 17.9219L124.444 24.9219L194.944 22.4219L207.944 11.9219L227.944 2.92188L246.444 7.42188L264.444 27.4219L262.444 52.4219L249.944 89.4219L266.944 137.922H54.9443L69.4443 30.4219Z" fill="white"/>
<path d="M368.734 364.821C366.174 367.441 365.304 367.711 359.784 367.591C356.424 367.511 352.954 366.891 352.064 366.211C351.174 365.541 348.974 364.971 347.174 364.951C344.674 364.931 343.634 364.331 342.764 362.421C341.524 359.711 342.314 356.161 349.344 332.731C351.274 326.311 353.174 318.701 353.554 315.821L354.244 310.591L261.344 311.291C160.984 312.041 157.234 311.901 137.444 306.701C129.974 304.731 127.214 304.611 95.9442 304.821C46.0342 305.161 16.4042 303.041 8.29416 298.551C1.21416 294.631 -1.76584 284.691 1.05416 274.421C1.65416 272.221 6.54416 260.751 11.9242 248.921C12.5742 247.491 13.2142 246.091 13.8242 244.731C33.9442 200.481 37.4342 192.821 35.1942 187.621C34.6642 186.371 33.7942 185.261 32.7442 183.821C26.6042 175.371 25.3842 168.271 29.4342 164.521L31.9242 162.211L31.2842 146.821C30.1642 119.461 34.2342 97.6812 44.3642 76.9212C46.6542 72.2212 46.9542 70.6212 46.4242 65.9212C45.6542 59.0812 47.8542 48.0112 51.3342 41.1312C57.0642 29.8212 69.7542 19.6512 82.3142 16.3112C90.1642 14.2212 103.494 14.5412 111.494 17.0112C118.034 19.0312 118.454 19.0412 124.264 17.4112C141.414 12.6012 163.274 11.6512 180.484 14.9712L191.134 17.0312L196.364 12.0812C199.234 9.37122 203.454 6.19122 205.734 5.03122C234.454 -9.61878 268.054 9.40121 268.254 40.4212C268.324 50.1412 266.334 56.6112 260.894 64.3712C258.724 67.4712 256.944 70.4212 256.944 70.9312C256.944 71.4412 258.494 74.6812 260.394 78.1412C264.914 86.3712 271.044 101.231 274.464 112.201C276.014 117.181 277.904 121.331 278.824 121.771C279.714 122.201 331.964 122.211 394.944 121.801C507.774 121.051 1602.56 118.771 1923.77 116.931C2068.9 116.101 2089.03 116.171 2096.07 117.501C2117.2 121.511 2136.98 130.381 2151.23 142.241L2157.26 147.261L2159.35 144.701C2160.5 143.301 2163.88 138.241 2166.85 133.451C2181.04 110.661 2201.23 99.9612 2219.71 105.451C2230.69 108.711 2236.98 116.731 2244.36 136.921C2248.94 149.441 2256.14 173.921 2258.93 186.421C2260.15 191.921 2261.5 196.791 2261.91 197.231C2262.33 197.681 2265.51 196.891 2268.98 195.481C2281.22 190.511 2288.94 193.041 2288.94 202.041C2288.94 213.341 2276.06 222.971 2256.44 226.341C2249.73 227.491 2249.43 227.661 2249.19 230.481C2248.34 240.551 2244.07 261.871 2239.83 277.221C2238.26 282.871 2239.07 283.881 2245.17 283.901C2251.48 283.931 2256.7 286.661 2259.47 291.381C2262.61 296.731 2262.59 299.991 2259.41 303.771C2255.23 308.741 2248.56 310.421 2232.94 310.421C2208.38 310.421 2204.28 306.151 2207.97 284.421C2213.87 249.741 2216.36 228.811 2216.4 213.581C2216.44 200.821 2216.42 200.731 2213.71 198.401C2210.28 195.451 2205.36 194.731 2191.44 195.111L2180.44 195.421L2179.83 213.921C2179.01 238.941 2175.86 250.961 2165.83 267.251C2164.18 269.941 2162.96 272.281 2163.14 272.451C2163.31 272.621 2167.24 274.151 2171.89 275.841C2181.45 279.331 2185.16 279.611 2190.96 277.291C2193.2 276.401 2195.29 275.931 2195.61 276.261C2196.64 277.291 2189.88 286.811 2185.08 291.081C2172.22 302.511 2155.76 304.821 2140.72 297.281C2135.02 294.431 2132.98 294.351 2128.15 296.811C2122.02 299.941 2109.26 303.881 2102.13 304.851C2098.45 305.361 2022.99 306.041 1934.44 306.381C1845.89 306.721 1702.12 307.411 1614.94 307.931C1527.77 308.441 665.264 309.161 567.274 309.531C469.284 309.901 388.684 310.481 388.164 310.811C387.654 311.151 386.464 315.021 385.534 319.421C380.364 343.901 374.984 358.431 368.734 364.821ZM362.454 358.791C361.594 366.271 362.664 366.651 366.984 360.361C377.994 344.361 384.944 309.881 384.944 271.211C384.944 231.891 377.114 195.631 359.244 152.171C358.964 151.481 359.224 150.921 359.834 150.921C361.764 150.921 371.894 173.371 376.944 188.811C386.754 218.851 390.494 245.121 389.564 277.421C389.234 288.971 388.684 299.851 388.344 301.611L387.734 304.801L422.094 304.351C488.214 303.491 1469.58 301.911 1715.94 300.941C1852.62 300.411 1995.14 299.721 2032.66 299.411C2109.44 298.781 2106.85 299.021 2125.5 290.841C2151.26 279.541 2166.09 261.641 2171.68 235.091C2173.4 226.931 2174.1 196.101 2172.65 192.521C2172.03 190.971 2170.35 193.061 2163.82 203.521C2155.57 216.711 2152.97 220.281 2152.16 219.481C2150.94 218.251 2197.28 135.601 2202.24 130.171C2203.41 128.881 2205.46 127.921 2207.03 127.921C2212.19 127.921 2217.02 136.031 2223.43 155.421L2226.73 165.421L2232.78 167.741C2240.13 170.551 2244.77 175.361 2248.06 183.541C2250.21 188.901 2250.42 190.911 2250.43 206.171C2250.43 207.621 2250.42 208.951 2250.42 210.181C2250.39 217.991 2250.38 221.431 2251.94 222.431C2253.16 223.211 2255.34 222.501 2259.25 221.231C2260.03 220.971 2260.87 220.701 2261.8 220.411C2275.34 216.131 2284.41 208.301 2283.74 201.471C2283.25 196.511 2279.42 195.881 2270.06 199.191C2261.05 202.391 2259.26 202.541 2258.56 200.171C2257.12 195.331 2250.53 172.611 2248.91 166.921C2245.51 155.031 2237.95 133.881 2234.49 126.611C2228.12 113.201 2222.62 109.431 2209.42 109.421C2201.26 109.421 2199.78 109.731 2193.92 112.641C2179.1 120.011 2172.07 129.431 2141.46 182.921C2129.97 203.001 2126.94 207.641 2126.94 205.151C2126.94 204.001 2146.05 166.011 2151.04 157.221L2153.43 153.021L2149.94 149.401C2139.86 138.941 2117.72 128.321 2095.46 123.251C2087.98 121.541 1335.55 121.631 551.234 125.101L279.024 126.311L278.724 133.861C278.414 141.831 277.964 141.711 275.974 133.161C271.154 112.401 255.434 73.9212 251.764 73.9212C251.204 73.9212 249.554 74.7712 248.094 75.8112C244.684 78.2312 238.234 80.9212 235.824 80.9212C233.384 80.9212 233.454 81.4112 236.404 85.2812C241.124 91.4612 244.304 99.9412 244.334 106.401C244.404 120.031 234.334 131.921 222.734 131.921C217.884 131.921 208.274 127.781 203.214 123.501L199.984 120.781L193.374 124.031C187.554 126.891 185.834 127.271 179.104 127.191C174.894 127.131 169.194 126.381 166.444 125.511C166.234 125.451 166.034 125.391 165.844 125.331C162.464 124.261 161.104 123.831 160.224 124.301C159.574 124.651 159.194 125.481 158.454 126.901C155.904 131.831 144.724 143.101 140.444 145.051C134.864 147.601 125.764 147.501 120.254 144.831C110.814 140.261 106.454 131.011 107.124 116.961L107.544 108.221L98.3742 108.701C87.7342 109.261 81.3142 108.031 71.9442 103.651C64.3342 100.091 54.4542 90.6512 51.5442 84.1612C50.4942 81.8312 49.3342 79.9212 48.9542 79.9212C48.1342 79.9212 46.5942 83.1812 43.3042 91.8912C38.4942 104.661 35.9342 120.941 35.9542 138.741C35.9742 155.051 36.5342 157.921 39.7442 157.921C41.1442 157.921 43.0542 158.621 43.9942 159.471C45.5542 160.881 45.7542 160.801 46.3142 158.581C46.9942 155.891 49.1042 154.661 51.4942 155.581C54.9042 156.881 64.5842 180.651 67.4042 194.611C69.4342 204.711 68.9442 206.831 61.4542 220.311L55.9642 230.211L59.6542 237.061C65.0442 247.031 72.1442 256.241 82.1342 266.221C86.9842 271.061 90.9442 275.231 90.9442 275.471C90.9442 276.291 41.5142 275.851 37.0742 274.991C34.6642 274.521 32.3142 273.531 31.8342 272.781C29.4242 268.971 30.5542 266.491 52.7142 227.031C59.4742 215.001 64.3542 205.171 64.6242 203.031C65.3342 197.271 54.0642 162.351 50.8542 160.361C49.4642 159.501 49.7742 163.971 51.5042 169.811C53.8842 177.821 52.9042 179.331 49.1842 173.421C43.9342 165.071 41.5042 161.981 40.1942 161.951C38.3142 161.911 38.6742 164.251 41.5342 170.641C47.2342 183.381 46.6842 184.181 38.9742 174.371C33.5642 167.481 31.4842 165.981 29.7642 167.701C28.1842 169.281 30.4742 175.091 35.0542 181.181C39.9142 187.611 40.5542 189.931 38.9642 195.261C38.2842 197.551 30.1242 216.551 20.8342 237.491C5.37416 272.341 3.94416 276.041 3.94416 281.291C3.94416 291.551 7.31416 294.981 19.2742 296.891C35.3542 299.461 112.944 301.161 112.944 298.951C112.944 298.411 111.704 297.321 110.194 296.531C106.924 294.821 102.624 290.911 103.274 290.251C103.534 290.001 106.424 291.151 109.714 292.801C120.504 298.251 143.134 304.121 160.444 305.951C171.214 307.091 353.124 305.061 354.444 303.791C355.914 302.371 355.664 258.421 354.124 246.421C351.244 223.991 344.834 195.321 337.474 171.971C330.594 150.111 335.824 157.111 343.974 180.661C346.114 186.851 349.444 198.321 351.384 206.161C364.204 258.061 363.594 301.901 349.494 342.421C342.984 361.131 343.614 368.441 350.614 355.381C352.364 352.131 354.274 349.311 354.864 349.111C354.944 349.091 355.014 349.061 355.074 349.041C355.384 348.931 355.604 348.861 355.714 348.931C356.004 349.121 355.714 350.191 354.724 353.871C354.634 354.201 354.544 354.551 354.444 354.921C353.634 357.951 352.964 361.211 352.954 362.171C352.934 365.601 355.954 363.841 358.404 358.991C362.174 351.561 363.304 351.511 362.454 358.791ZM123.444 142.021C128.854 144.531 133.094 144.381 138.804 141.491C146.484 137.601 154.114 128.471 160.414 115.631C166.774 102.661 167.934 98.9212 165.584 98.9212C162.674 98.9212 156.944 92.9512 156.944 89.9112C156.944 86.3812 161.394 82.4412 167.244 80.7812C173.484 79.0112 184.804 79.2712 188.684 81.2812C195.714 84.9212 196.594 91.5112 190.734 96.4512C187.964 98.7712 187.784 99.2612 188.914 101.361C191.394 105.991 200.134 115.831 205.234 119.711C213.824 126.261 217.254 127.431 226.664 127.021C230.364 126.851 235.654 121.291 237.994 115.111C242.444 103.301 238.814 93.7112 224.484 79.4012C207.954 62.9012 187.554 55.2012 167.604 57.9312C146.954 60.7612 122.964 80.5112 114.794 101.421C107.504 120.071 110.944 136.241 123.444 142.021ZM2218.94 304.831C2225.96 306.191 2240.85 306.031 2247.23 304.531C2257.04 302.221 2259.64 297.471 2254.11 291.941C2250.64 288.471 2245.43 286.931 2237.08 286.931C2231.46 286.921 2230.8 286.721 2231.39 285.181C2231.76 284.231 2233.81 276.461 2235.94 267.931C2241.79 244.561 2244.38 225.591 2244.41 205.921C2244.44 190.761 2244.25 189.001 2242.12 184.291C2240.84 181.461 2238.59 178.031 2237.12 176.661C2231.23 171.171 2216.02 167.921 2196.27 167.921H2186.04L2183.65 171.171C2177.34 179.751 2176.66 181.601 2177.92 186.831L2179.09 191.711L2193.31 191.171C2206.25 190.691 2207.95 190.831 2212.27 192.741C2219.64 196.001 2220.3 198.451 2219.67 220.421C2219.18 237.591 2217.36 253.491 2212.88 279.771C2209.52 299.471 2210.42 303.191 2218.94 304.831ZM95.8942 81.5612C106.224 84.3412 116.144 82.4612 124.434 76.1512C135.544 67.6912 139.414 51.5012 132.994 40.3212C129.514 34.2512 122.244 27.9012 114.824 24.4412C95.8642 15.6212 73.4442 30.8212 73.5442 52.4212C73.6042 66.4212 82.4242 77.9312 95.8942 81.5612ZM231.364 55.8612C237.014 58.0412 247.244 58.5212 253.114 56.8912C259.074 55.2312 260.864 53.1012 262.054 46.2312C265.414 26.9412 250.294 7.71121 229.904 5.34121C224.874 4.75121 224.074 4.94121 221.184 7.37121C219.434 8.84121 216.584 12.9412 214.844 16.4712C211.944 22.3712 211.714 23.5112 212.154 30.3012C212.514 35.9212 213.264 38.8012 215.284 42.2312C218.714 48.0912 224.994 53.4112 231.364 55.8612ZM143.664 54.7812C143.974 58.1612 144.624 60.9212 145.114 60.9212C145.604 60.9212 148.134 59.8512 150.724 58.5512C157.704 55.0412 167.514 52.9212 176.734 52.9212H184.894L184.174 49.6712C182.874 43.8612 183.524 32.5312 185.464 27.1312C186.484 24.2912 187.104 21.7512 186.834 21.4812C186.564 21.2112 182.094 20.2512 176.894 19.3412C162.414 16.8112 136.524 18.3412 125.224 22.4012C124.524 22.6512 126.564 25.2712 130.014 28.5712C137.604 35.8012 142.864 45.9012 143.664 54.7812ZM41.7342 271.001C49.6042 272.091 77.7642 272.031 78.4542 270.911C78.7942 270.351 76.3242 266.861 72.9542 263.161C69.5842 259.451 63.8742 252.031 60.2642 246.671C56.6542 241.311 53.3741 236.921 52.9841 236.921C52.5942 236.921 49.7442 241.981 46.6542 248.171C43.5642 254.361 39.7842 261.531 38.2642 264.111C36.7342 266.691 35.8342 269.141 36.2542 269.571C36.6842 269.991 39.1442 270.631 41.7342 271.001ZM2145.31 296.471C2147.86 297.321 2152.87 297.741 2158.44 297.581C2166.42 297.361 2168.13 296.961 2173.53 294.071C2176.88 292.281 2181.74 288.661 2184.33 286.031L2189.04 281.251L2183.74 281.671C2179.4 282.011 2176.75 281.431 2169.12 278.461L2159.81 274.841L2154.39 279.791C2151.41 282.511 2146.22 286.541 2142.85 288.741C2136.99 292.571 2136.83 292.791 2138.95 293.931C2140.17 294.581 2143.03 295.731 2145.31 296.471ZM2188.99 163.171C2188.96 163.581 2196.14 163.921 2204.94 163.921C2206.08 163.921 2207.14 163.921 2208.13 163.931C2216.19 163.951 2219.63 163.951 2220.54 162.441C2221.22 161.311 2220.49 159.331 2219.22 155.871C2219.01 155.301 2218.78 154.691 2218.54 154.041C2212.67 137.801 2209.35 132.541 2206.22 134.521C2204.77 135.431 2189.1 161.491 2188.99 163.171ZM171.944 123.281C176.794 124.231 186.864 123.001 190.834 120.981C195.994 118.341 196.574 117.241 194.174 114.601C193.084 113.401 190.304 109.611 187.984 106.171L183.764 99.9212H177.324C172.094 99.9212 170.764 100.251 170.254 101.671C169.904 102.631 167.944 107.351 165.904 112.161L162.174 120.911L165.814 121.851C167.804 122.361 170.564 123.011 171.944 123.281ZM64.0742 136.291C60.6542 139.581 55.4342 140.491 51.7942 138.451C46.8642 135.681 42.9642 123.881 42.9542 111.671C42.9442 104.251 44.5042 106.071 46.3942 115.671C48.2642 125.191 50.7142 131.671 53.2242 133.741C55.5742 135.691 59.9742 134.781 62.1042 131.921C64.8342 128.241 66.3042 118.411 65.1042 111.841C64.5642 108.861 64.3442 106.201 64.6142 105.921C65.6342 104.901 67.8942 109.361 68.9542 114.491C70.6842 122.781 68.6342 131.931 64.0742 136.291Z" fill="#120E06"/>
<path fill-rule="evenodd" clip-rule="evenodd" d="M362.454 358.793C363.304 351.513 362.174 351.563 358.404 358.993C355.954 363.843 352.934 365.603 352.954 362.173C352.964 361.213 353.634 357.953 354.444 354.923C354.492 354.748 354.536 354.578 354.58 354.412C354.61 354.3 354.639 354.189 354.668 354.08C354.687 354.01 354.706 353.941 354.724 353.873L354.743 353.804C355.718 350.179 356.003 349.122 355.714 348.933C355.604 348.863 355.384 348.933 355.074 349.043C355.061 349.047 355.047 349.052 355.033 349.057L355.014 349.064C354.969 349.081 354.919 349.099 354.864 349.113C354.274 349.313 352.364 352.133 350.614 355.383C343.614 368.443 342.984 361.133 349.494 342.423C363.594 301.903 364.204 258.063 351.384 206.163C349.444 198.323 346.114 186.853 343.974 180.663C335.824 157.113 330.594 150.113 337.474 171.973C344.834 195.323 351.244 223.993 354.124 246.423C355.664 258.423 355.914 302.373 354.444 303.793C353.124 305.063 171.214 307.093 160.444 305.953C143.134 304.123 120.504 298.253 109.714 292.803C106.424 291.153 103.534 290.003 103.274 290.253C102.624 290.913 106.924 294.823 110.194 296.533C111.704 297.323 112.944 298.413 112.944 298.953C112.944 301.163 35.3543 299.463 19.2743 296.893C7.31434 294.983 3.94434 291.553 3.94434 281.293C3.94434 276.043 5.37434 272.343 20.8343 237.493C30.1243 216.553 38.2843 197.553 38.9643 195.263C40.5543 189.933 39.9143 187.613 35.0543 181.183C30.4743 175.093 28.1843 169.283 29.7643 167.703C31.4843 165.983 33.5643 167.483 38.9743 174.373C46.6843 184.183 47.2343 183.383 41.5343 170.643C38.6743 164.253 38.3143 161.913 40.1943 161.953C41.5043 161.983 43.9343 165.073 49.1843 173.423C52.9043 179.333 53.8843 177.823 51.5043 169.813C49.7743 163.973 49.4643 159.503 50.8543 160.363C54.0643 162.353 65.3343 197.273 64.6243 203.033C64.3543 205.173 59.4743 215.003 52.7143 227.033C30.5543 266.493 29.4243 268.973 31.8343 272.783C32.3143 273.533 34.6643 274.523 37.0743 274.993C41.5143 275.853 90.9443 276.293 90.9443 275.473C90.9443 275.233 86.9843 271.063 82.1343 266.223C72.1443 256.243 65.0443 247.033 59.6543 237.063L55.9643 230.213L61.4543 220.313C68.9443 206.833 69.4343 204.713 67.4043 194.613C64.5843 180.653 54.9043 156.883 51.4943 155.583C49.1043 154.663 46.9943 155.893 46.3143 158.583C45.7543 160.803 45.5543 160.883 43.9943 159.473C43.0543 158.623 41.1443 157.923 39.7443 157.923C36.5343 157.923 35.9743 155.053 35.9543 138.743C35.9343 120.943 38.4943 104.663 43.3043 91.8927C46.5943 83.1827 48.1343 79.9227 48.9543 79.9227C49.3343 79.9227 50.4943 81.8327 51.5443 84.1627C54.4543 90.6527 64.3343 100.093 71.9443 103.653C81.3143 108.033 87.7343 109.263 98.3743 108.703L107.544 108.223L107.124 116.963C106.454 131.013 110.814 140.263 120.254 144.833C125.764 147.503 134.864 147.603 140.444 145.053C144.724 143.103 155.904 131.833 158.454 126.903C158.494 126.826 158.533 126.751 158.571 126.678C158.6 126.622 158.629 126.566 158.657 126.512C159.269 125.329 159.636 124.619 160.224 124.303C161.104 123.833 162.464 124.263 165.844 125.333C166.034 125.393 166.234 125.453 166.444 125.513C169.194 126.383 174.894 127.133 179.104 127.193C185.834 127.273 187.554 126.893 193.374 124.033L199.984 120.783L203.214 123.503C208.274 127.783 217.884 131.923 222.734 131.923C234.334 131.923 244.404 120.033 244.334 106.403C244.304 99.9427 241.124 91.4627 236.404 85.2827C233.454 81.4127 233.384 80.9227 235.824 80.9227C238.234 80.9227 244.684 78.2327 248.094 75.8127C249.554 74.7727 251.204 73.9227 251.764 73.9227C255.434 73.9227 271.154 112.403 275.974 133.163C277.964 141.713 278.414 141.833 278.724 133.863L279.024 126.313L551.234 125.103C1335.55 121.633 2087.98 121.543 2095.46 123.253C2117.72 128.323 2139.86 138.943 2149.94 149.403L2153.43 153.023L2151.04 157.223C2146.05 166.013 2126.94 204.003 2126.94 205.153C2126.94 207.643 2129.97 203.003 2141.46 182.923C2172.07 129.433 2179.1 120.013 2193.92 112.643C2199.78 109.733 2201.26 109.423 2209.42 109.423C2222.62 109.433 2228.12 113.203 2234.49 126.613C2237.95 133.883 2245.51 155.033 2248.91 166.923C2250.53 172.613 2257.12 195.333 2258.56 200.173C2259.26 202.543 2261.05 202.393 2270.06 199.193C2279.42 195.883 2283.25 196.513 2283.74 201.473C2284.41 208.303 2275.34 216.133 2261.8 220.413C2260.87 220.703 2260.03 220.973 2259.25 221.233L2259.24 221.239C2255.34 222.505 2253.16 223.211 2251.94 222.433C2250.38 221.433 2250.39 217.993 2250.42 210.183V210.103C2250.42 209.528 2250.43 208.928 2250.43 208.303C2250.43 207.625 2250.43 206.91 2250.43 206.173C2250.42 190.913 2250.21 188.903 2248.06 183.543C2244.77 175.363 2240.13 170.553 2232.78 167.743L2226.73 165.423L2223.43 155.423C2217.02 136.033 2212.19 127.923 2207.03 127.923C2205.46 127.923 2203.41 128.883 2202.24 130.173C2197.28 135.603 2150.94 218.253 2152.16 219.483C2152.97 220.283 2155.57 216.713 2163.82 203.523C2170.35 193.063 2172.03 190.973 2172.65 192.523C2174.1 196.103 2173.4 226.933 2171.68 235.093C2166.09 261.643 2151.26 279.543 2125.5 290.843C2125.01 291.059 2124.53 291.269 2124.07 291.473C2120.45 293.065 2117.62 294.311 2114.7 295.293C2104.16 298.831 2092.47 298.927 2038.61 299.364L2032.66 299.413C1995.14 299.723 1852.62 300.413 1715.94 300.943C1469.58 301.913 488.214 303.493 422.094 304.353L387.734 304.803L388.344 301.613C388.684 299.853 389.234 288.973 389.564 277.423C390.494 245.123 386.754 218.853 376.944 188.813C371.894 173.373 361.764 150.923 359.834 150.923C359.224 150.923 358.964 151.483 359.244 152.173C377.114 195.633 384.944 231.893 384.944 271.213C384.944 309.883 377.994 344.363 366.984 360.363C362.664 366.653 361.594 366.273 362.454 358.793ZM123.444 142.023C110.944 136.243 107.504 120.073 114.794 101.423C122.964 80.5127 146.954 60.7627 167.604 57.9327C187.554 55.2027 207.954 62.9027 224.484 79.4027C238.814 93.7127 242.444 103.303 237.994 115.113C235.654 121.293 230.364 126.853 226.664 127.023C217.254 127.433 213.824 126.263 205.234 119.713C200.134 115.833 191.394 105.993 188.914 101.363C187.784 99.2627 187.964 98.7727 190.734 96.4527C196.594 91.5127 195.714 84.9227 188.684 81.2827C184.804 79.2727 173.484 79.0127 167.244 80.7827C161.394 82.4427 156.944 86.3827 156.944 89.9127C156.944 92.9527 162.674 98.9227 165.584 98.9227C167.934 98.9227 166.774 102.663 160.414 115.633C154.114 128.473 146.484 137.603 138.804 141.493C133.094 144.383 128.854 144.533 123.444 142.023ZM2218.94 304.833C2210.42 303.193 2209.52 299.473 2212.88 279.773C2217.36 253.493 2219.18 237.593 2219.67 220.423C2220.3 198.453 2219.64 196.003 2212.27 192.743C2207.95 190.833 2206.25 190.693 2193.31 191.173L2179.09 191.713L2177.92 186.833C2176.66 181.603 2177.34 179.753 2183.65 171.173L2186.04 167.923H2196.27C2216.02 167.923 2231.23 171.173 2237.12 176.663C2238.59 178.033 2240.84 181.463 2242.12 184.293C2244.25 189.003 2244.44 190.763 2244.41 205.923C2244.38 225.593 2241.79 244.563 2235.94 267.933C2233.81 276.463 2231.76 284.233 2231.39 285.183C2230.8 286.723 2231.46 286.923 2237.08 286.933C2245.43 286.933 2250.64 288.473 2254.11 291.943C2259.64 297.473 2257.04 302.223 2247.23 304.533C2240.85 306.033 2225.96 306.193 2218.94 304.833ZM143.664 54.7827C142.864 45.9027 137.604 35.8027 130.014 28.5727C126.564 25.2727 124.524 22.6527 125.224 22.4027C136.524 18.3427 162.414 16.8127 176.894 19.3427C182.094 20.2527 186.564 21.2127 186.834 21.4827C187.104 21.7527 186.484 24.2927 185.464 27.1327C183.524 32.5327 182.874 43.8627 184.174 49.6727L184.894 52.9227H176.734C167.514 52.9227 157.704 55.0427 150.724 58.5527C148.134 59.8527 145.604 60.9227 145.114 60.9227C144.624 60.9227 143.974 58.1627 143.664 54.7827ZM2145.31 296.473C2143.03 295.733 2140.17 294.583 2138.95 293.933C2136.83 292.793 2136.99 292.573 2142.85 288.743C2146.22 286.543 2151.41 282.513 2154.39 279.793L2159.81 274.843L2169.12 278.463C2176.75 281.433 2179.4 282.013 2183.74 281.673L2189.04 281.253L2184.33 286.033C2181.74 288.663 2176.88 292.283 2173.53 294.073C2168.13 296.963 2166.42 297.363 2158.44 297.583C2152.87 297.743 2147.86 297.323 2145.31 296.473ZM171.944 123.283C170.564 123.013 167.804 122.363 165.814 121.853L162.174 120.913L165.904 112.163C167.944 107.353 169.904 102.633 170.254 101.673C170.764 100.253 172.094 99.9227 177.324 99.9227H183.764L187.984 106.173C190.304 109.613 193.084 113.403 194.174 114.603C196.574 117.243 195.994 118.343 190.834 120.983C186.864 123.003 176.794 124.233 171.944 123.283ZM64.0743 136.293C68.6343 131.933 70.6843 122.783 68.9543 114.493C67.8943 109.363 65.6343 104.903 64.6143 105.923C64.3443 106.203 64.5643 108.863 65.1043 111.843C66.3043 118.413 64.8343 128.243 62.1043 131.923C59.9743 134.783 55.5743 135.693 53.2243 133.743C50.7143 131.673 48.2643 125.193 46.3943 115.673C44.5043 106.073 42.9443 104.253 42.9543 111.673C42.9643 123.883 46.8643 135.683 51.7943 138.453C55.4343 140.493 60.6543 139.583 64.0743 136.293Z" fill="#FAB623"/>
</svg>
